<svg xmlns="http://www.w3.org/2000/svg" xmlns:xlink="http://www.w3.org/1999/xlink" width="39" height="39" viewBox="0 0 39 39">
  <defs>
    <style>
      .cls-1 {
        fill: #fff;
        fill-rule: evenodd;
        filter: url(#filter);
      }
    </style>
    <filter id="filter" x="730" y="1100" width="39" height="39" filterUnits="userSpaceOnUse">
      <feFlood result="flood" flood-color="#444"/>
      <feComposite result="composite" operator="in" in2="SourceGraphic"/>
      <feBlend result="blend" in2="SourceGraphic"/>
    </filter>
  </defs>
  <path id="broccoli" class="cls-1" d="M738.659,1125.7a8.167,8.167,0,0,1-7.554-4.72,7.137,7.137,0,0,1,.227-6.29,7.845,7.845,0,0,1-.544-1.03,8.883,8.883,0,0,1-.085-7.06,9.775,9.775,0,0,1,5.661-5.38,10.977,10.977,0,0,1,9.543.93,9.906,9.906,0,0,1,2.611-1.49,10.206,10.206,0,0,1,3.587-.65,9.519,9.519,0,0,1,8.8,5.49,0.8,0.8,0,0,0,.036.08,7.359,7.359,0,0,1,1.241-.1,6.8,6.8,0,0,1,6.28,3.91,5.975,5.975,0,0,1,.055,4.75,6.633,6.633,0,0,1-3.733,3.59,5.376,5.376,0,0,1-.215,3.54,5.9,5.9,0,0,1-3.417,3.25,6.411,6.411,0,0,1-2.294.42h0a6.393,6.393,0,0,1-3.9-1.32,7.1,7.1,0,0,1-2.321,1.43,7.877,7.877,0,0,1-8.175-1.62,8.136,8.136,0,0,1-2.732,1.71A8.7,8.7,0,0,1,738.659,1125.7Zm1.539-23.68a9.142,9.142,0,0,0-3.31.61,8.27,8.27,0,0,0-4.812,4.55,7.378,7.378,0,0,0,.071,5.87,7.7,7.7,0,0,0,.671,1.2l0.271,0.4-0.252.41a5.665,5.665,0,0,0-.373,5.31,6.679,6.679,0,0,0,6.195,3.83,7.137,7.137,0,0,0,2.548-.46,6.73,6.73,0,0,0,2.7-1.89l0.573-.67,0.563,0.68a6.327,6.327,0,0,0,7.071,1.79,5.985,5.985,0,0,0,2.267-1.55l0.519-.56,0.546,0.53a4.9,4.9,0,0,0,3.418,1.37h0a5.079,5.079,0,0,0,1.769-.32,4.435,4.435,0,0,0,2.569-2.43,3.886,3.886,0,0,0-.021-3.06l-0.056-.12-0.32-.79,1.025-.27c0.126-.03.254-0.06,0.38-0.1a5.074,5.074,0,0,0,2.941-2.78,4.5,4.5,0,0,0-.042-3.57,5.3,5.3,0,0,0-4.921-3.02,5.563,5.563,0,0,0-1.518.2l-0.673.18-0.223-.67c-0.067-.19-0.137-0.39-0.222-0.58a8.04,8.04,0,0,0-7.446-4.61,8.648,8.648,0,0,0-3.062.56,8.087,8.087,0,0,0-2.581,1.58l-0.442.41-0.487-.35A9.3,9.3,0,0,0,740.2,1102.02ZM752.576,1139h-8.771l0.224-.93a13.313,13.313,0,0,0-4.56-12.57l0.979-1.13a14.925,14.925,0,0,1,5.184,13.13h5.83c0.271-5.83,3.535-13.37,3.68-13.7l1.183,0.6c-0.035.08-3.749,8.25-3.749,13.85V1139Zm-0.744-14.98-7.577.08-0.826-.83,6.161,11.35-1.467-.24,0.744-4.5,1.467,0.25Zm-2.886-4.28-2.231-4.49,1.331-.67,2.231,4.49Z" transform="translate(-730 -1100)"/>
</svg>
