<svg xmlns="http://www.w3.org/2000/svg" xmlns:xlink="http://www.w3.org/1999/xlink" width="47" height="38" viewBox="0 0 47 38">
  <defs>
    <style>
      .cls-1 {
        fill: #fff;
        fill-rule: evenodd;
        filter: url(#filter);
      }
    </style>
    <filter id="filter" x="1023" y="1568" width="47" height="38" filterUnits="userSpaceOnUse">
      <feFlood result="flood" flood-color="#222"/>
      <feComposite result="composite" operator="in" in2="SourceGraphic"/>
      <feBlend result="blend" in2="SourceGraphic"/>
    </filter>
  </defs>
  <path id="land_working" data-name="land working" class="cls-1" d="M1058.25,1605.19a11.6,11.6,0,1,0-11.75-11.6A11.686,11.686,0,0,0,1058.25,1605.19Zm0-21.6a10,10,0,1,1-10.13,10A10.077,10.077,0,0,1,1058.25,1583.59Zm0,16.8a6.8,6.8,0,1,0-6.89-6.8A6.852,6.852,0,0,0,1058.25,1600.39Zm0-12a5.2,5.2,0,1,1-5.27,5.2A5.25,5.25,0,0,1,1058.25,1588.39Zm-28.77,17.6a6.4,6.4,0,1,0-6.48-6.4A6.451,6.451,0,0,0,1029.48,1605.99Zm0-11.2a4.8,4.8,0,1,1-4.86,4.8A4.84,4.84,0,0,1,1029.48,1594.79Zm4.86,4.74h15.4l-0.68-1.27a10.178,10.178,0,0,1-.94-4.27,10.4,10.4,0,0,1,5.44-9.1l2.74-1.5h-27.63a4.035,4.035,0,0,0-4.05,4v8a2.452,2.452,0,0,0,.02.27l0.15,1.73,1.24-1.18a4.878,4.878,0,0,1,8.23,2.53Zm12.97-1.61h-11.34a6.906,6.906,0,0,0-6.49-4.73,6.545,6.545,0,0,0-3.23.85l-0.01-6.65a2.42,2.42,0,0,1,2.43-2.4h21.95a11.945,11.945,0,0,0-4.12,9A12.694,12.694,0,0,0,1047.31,1597.92Zm-21.07-6.48h10.54a0.81,0.81,0,1,0,0-1.62h-10.54A0.81,0.81,0,1,0,1026.24,1591.44Zm0-3.25h10.54a0.8,0.8,0,1,0,0-1.6h-10.54A0.8,0.8,0,1,0,1026.24,1588.19Zm23.61-5.92a0.8,0.8,0,0,0,.73-0.46,0.785,0.785,0,0,0-.39-1.06l-4.67-2.16a0.825,0.825,0,0,0-1.08.39,0.793,0.793,0,0,0,.39,1.06l4.68,2.16A0.8,0.8,0,0,0,1049.85,1582.27Zm-2.54,1.92a0.8,0.8,0,0,0,.81-0.8v-2.4a0.81,0.81,0,0,0-1.62,0v2.4A0.8,0.8,0,0,0,1047.31,1584.19Zm7.43-.88a0.8,0.8,0,0,0,.78-0.61l1.36-5.43a0.814,0.814,0,0,0-1.58-.39l-1.35,5.44a0.8,0.8,0,0,0,.59.97A0.68,0.68,0,0,0,1054.74,1583.31Zm-23.64.08h1.62v-5.6h-1.62v5.6Zm2.43,0h1.63v-5.6h-1.63v5.6Zm-0.07-6.77a9.521,9.521,0,0,1,2.94-3.29l-0.9-1.33a11.153,11.153,0,0,0-3.45,3.83Zm15.97-3.66,0.18-1.59c-0.96-.11-1.96-0.26-2.92-0.4-1.32-.2-2.68-0.41-4.01-0.5l-0.11,1.6c1.26,0.08,2.59.28,3.88,0.48C1047.42,1572.7,1048.43,1572.85,1049.43,1572.96Zm7.25-.75a10.462,10.462,0,0,0,4.07-3.22l-1.28-.99a8.8,8.8,0,0,1-3.44,2.74Zm-25.58,27.16a1.62,1.62,0,1,1-1.62-1.6A1.609,1.609,0,0,1,1031.1,1599.37Zm28.64-5.78a1.625,1.625,0,1,1-1.63-1.6A1.611,1.611,0,0,1,1059.74,1593.59Z" transform="translate(-1023 -1568)"/>
</svg>
