<svg xmlns="http://www.w3.org/2000/svg" xmlns:xlink="http://www.w3.org/1999/xlink" width="36" height="33" viewBox="0 0 36 33">
  <defs>
    <style>
      .cls-1 {
        fill: #fff;
        fill-rule: evenodd;
        filter: url(#filter);
      }
    </style>
    <filter id="filter" x="623" y="1573" width="36" height="33" filterUnits="userSpaceOnUse">
      <feFlood result="flood" flood-color="#222"/>
      <feComposite result="composite" operator="in" in2="SourceGraphic"/>
      <feBlend result="blend" in2="SourceGraphic"/>
    </filter>
  </defs>
  <path id="vector" class="cls-1" d="M627.959,1605.99a3.26,3.26,0,1,1,3.306-3.26A3.285,3.285,0,0,1,627.959,1605.99Zm0-5.07a1.81,1.81,0,1,0,1.837,1.81A1.824,1.824,0,0,0,627.959,1600.92Zm13.225-7.98a3.26,3.26,0,1,1,3.306-3.26A3.285,3.285,0,0,1,641.184,1592.94Zm0-5.07a1.81,1.81,0,1,0,1.836,1.81A1.824,1.824,0,0,0,641.184,1587.87Zm-12.49,12.86h-1.469a11.7,11.7,0,0,1,11.938-11.61v1.45A10.141,10.141,0,0,0,628.694,1600.73Zm26.082-21.2a3.26,3.26,0,1,1,3.306-3.26A3.286,3.286,0,0,1,654.776,1579.53Zm0-5.08a1.815,1.815,0,1,0,1.836,1.82A1.833,1.833,0,0,0,654.776,1574.45Zm-11.2,15.59v-1.45a10.137,10.137,0,0,0,10.3-10.33h1.469A11.687,11.687,0,0,1,643.571,1590.04Zm10.286,0.63H643.571v-1.44h10.286v1.44Zm-14.694,0h-11.02v-1.44h11.02v1.44ZM659,1592.76h-5.877v-5.68H659v5.68Zm-4.408-1.38h2.939v-2.87h-2.939v2.87Zm-25.714,1.38H623v-5.68h5.878v5.68Zm-4.409-1.38h2.939v-2.87h-2.939v2.87Z" transform="translate(-623 -1573)"/>
</svg>
